# xmcd
#
# Track frame offsets:
#	150
#	15954
#	27731
#	44454
#	62542
#	83080
#	102804
#	121216
#	141505
#	156917
#	173754
#	197783
#	209155
#	223445
#	249244
#	261243
#	273393
#	286107
#	293193
#	316368
#
# Disc length: 4441 seconds
#
# Revision: 0
# Processed by: cddbd v1.5.2PL0 Copyright (c) Steve Scherf et al.
# Submitted via: EasyCDDAExtractor 16.0.6.1
#
DISCID=33115714
DTITLE=Συλλογικός δίσκος - 100th Year Classic-Deutsche Grammophon's
DYEAR=1998
DGENRE=Κλασική
TTITLE0=Άνευ ερμηνευτού -  Hungarian Dance #5 In G Minor [Brahms]
TTITLE1=Άνευ ερμηνευτού - Dolly Suite - Berceuse [Faure]
TTITLE2=Άνευ ερμηνευτού - Tango del Atardecer [Schifrin]
TTITLE3=Άνευ ερμηνευτού - Fr Elise [Beethoven]
TTITLE4=Soile Isokoski-Bryn Terfel - Don Giovanni [Mozart]
TTITLE5=Άνευ ερμηνευτού - Piano Concerto No.1 [Chopin]
TTITLE6=Χορωδία - Missa Salisburgensis [Biber]
TTITLE7=Anne Sofie von Otter - Cessate, omai cessate [Vivaldi]
TTITLE8=Placido Domingo - The Flying Dutchman [Wagner]
TTITLE9=Jessye Norman - Das Lied von der Erde [Mahler]
TTITLE10=Άνευ ερμηνευτού - Violin Concerto No.5 [Mozart]
TTITLE11=Άνευ ερμηνευτού - Sonate No.4 [Mondonville]
TTITLE12=Christine Schäfer - Herzgew chse [Schoenberg]
TTITLE13=Άνευ ερμηνευτού - Piano Concerto No.3 [Beethoven]
TTITLE14=Άνευ ερμηνευτού - Clarinet Concerto in A major [Mozart]
TTITLE15=Άνευ ερμηνευτού - Toccata in D minor [Bach]
TTITLE16=Άνευ ερμηνευτού - Symphony No.4 [Brahms]
TTITLE17=Άνευ ερμηνευτού - Etude [Wieniawski]
TTITLE18=Άνευ ερμηνευτού - Chorale Prelude [Bach]
TTITLE19=Enrico Caruso - L'africaine [Meyerbeer]
EXTD=
EXTT0=
EXTT1=
EXTT2=
EXTT3=
EXTT4=
EXTT5=
EXTT6=
EXTT7=
EXTT8=
EXTT9=
EXTT10=
EXTT11=
EXTT12=
EXTT13=
EXTT14=
EXTT15=
EXTT16=
EXTT17=
EXTT18=
EXTT19=
PLAYORDER=
